<svg xmlns="http://www.w3.org/2000/svg" version="1.1" xmlns:xlink="http://www.w3.org/1999/xlink" xmlns:svgjs="http://svgjs.dev/svgjs" width="1000" height="252" viewBox="0 0 1000 252"><g transform="matrix(1,0,0,1,-0.6060605378332866,-0.5421715429833966)"><svg viewBox="0 0 396 100" data-background-color="#ffffff" preserveAspectRatio="xMidYMid meet" height="252" width="1000" xmlns="http://www.w3.org/2000/svg" xmlns:xlink="http://www.w3.org/1999/xlink"><g id="tight-bounds" transform="matrix(1,0,0,1,0.24000002701802714,0.21514743769182587)"><svg viewBox="0 0 395.52 99.56970512461636" height="99.56970512461636" width="395.52"><g><svg viewBox="0 0 547.5186430515168 137.83442010232002" height="99.56970512461636" width="395.52"><g transform="matrix(1,0,0,1,0,38.91792391195716)"><svg viewBox="0 0 395.52 59.9985722784057" height="59.9985722784057" width="395.52"><g id="textblocktransform"><svg viewBox="0 0 395.52 59.9985722784057" height="59.9985722784057" width="395.52" id="textblock"><g><svg viewBox="0 0 395.52 59.9985722784057" height="59.9985722784057" width="395.52"><g transform="matrix(1,0,0,1,0,0)"><svg width="395.52" viewBox="2.200000047683716 -37.70000076293945 252.1300048828125 38.25" height="59.9985722784057" data-palette-color="#001f3f"><path d="M14.65-32.15L14.65-32.15 11.8-32.15 11.8-17.7 14.65-17.7Q18.1-17.7 19.98-19.68 21.85-21.65 21.85-24.98 21.85-28.3 19.98-30.23 18.1-32.15 14.65-32.15ZM6.8-36.8L6.8-36.8 16.15-36.8Q16.3-36.8 16.45-36.8L16.45-36.8Q24.7-36.8 28.7-31.7L28.7-31.7Q30.9-28.9 30.9-24.95 30.9-21 28.7-18.25L28.7-18.25Q24.65-13.1 16.15-13.1L16.15-13.1 11.75-13.1 11.75-5.15Q11.75-2.45 13.4-1.6L13.4-1.6Q11.5 0.55 8.8 0.55L8.8 0.55Q3.9 0.55 3.9-5.4L3.9-5.4 3.9-31.15Q3.9-33.7 2.2-34.6L2.2-34.6Q4.05-36.8 6.8-36.8ZM48.35-6.4L48.35-6.4 56.4-6.4Q59.95-6.4 62.7-8.4L62.7-8.4Q64.3-7.05 64.3-4.85 64.3-2.65 62.7-1.33 61.1 0 57.9 0L57.9 0 47.05 0Q42.05 0 39.72-2.15 37.4-4.3 37.4-8.95L37.4-8.95 37.4-31.15Q37.4-33.7 35.7-34.6L35.7-34.6Q37.55-36.8 40.25-36.8L40.25-36.8 56.95-36.8Q60.9-36.8 62.6-35.77 64.3-34.75 64.3-32.75 64.3-30.75 62.7-29.4L62.7-29.4Q60.3-30.35 56.4-30.35L56.4-30.35 45.25-30.35 45.25-22.85 52.15-22.85Q56.15-22.85 57.82-22 59.5-21.15 59.5-19.13 59.5-17.1 57.9-15.85L57.9-15.85Q56.1-16.45 51.6-16.45L51.6-16.45 45.25-16.45 45.25-9.95Q45.25-6.4 48.35-6.4ZM75.64-36.8L75.64-36.8 93.75-36.8Q98.55-36.8 98.55-32.95L98.55-32.95Q98.55-31.6 97.3-30.05L97.3-30.05Q95.25-30.95 91.4-30.95L91.4-30.95 87.45-30.95 87.45-5.15Q87.45-2.45 89.09-1.6L89.09-1.6Q87.2 0.55 84.5 0.55L84.5 0.55Q79.59 0.55 79.59-5.4L79.59-5.4 79.59-30.95 73.3-30.95Q68.5-30.95 68.5-34.8L68.5-34.8Q68.5-36.15 69.75-37.7L69.75-37.7Q71.8-36.8 75.64-36.8ZM147.24-29.95L147.24-29.95Q147.24-27.7 145.64-26.63 144.04-25.55 141.79-25.55 139.54-25.55 137.84-26.6L137.84-26.6Q138.04-27.6 138.04-28.88 138.04-30.15 137.34-31.25L137.34-31.25Q136.24-32.9 133.79-32.9L133.79-32.9Q130.19-32.9 127.64-29.18 125.09-25.45 125.09-18.82 125.09-12.2 127.87-9.35 130.64-6.5 135.54-6.5L135.54-6.5Q138.54-6.5 141.27-7.93 143.99-9.35 145.59-11.3L145.59-11.3Q147.34-10.55 147.34-8.2L147.34-8.2Q147.34-5.15 143.24-2.3 139.14 0.55 133.49 0.55L133.49 0.55Q125.59 0.55 121.22-4.33 116.84-9.2 116.84-18 116.84-26.8 121.59-32.05 126.34-37.3 134.49-37.3L134.49-37.3Q139.74-37.3 143.49-35.18 147.24-33.05 147.24-29.95ZM169.19-24.65L165.04-11.8 172.84-11.8 169.19-24.65ZM186.74-2.3Q186.14-1 184.71-0.23 183.29 0.55 181.34 0.55 179.39 0.55 178.14-0.43 176.89-1.4 175.89-3.9L175.89-3.9 174.69-7 163.34-7 162.09-3.5Q160.69 0.55 157.34 0.55L157.34 0.55Q155.74 0.55 154.31-0.18 152.89-0.9 152.44-2L152.44-2Q153.29-2.35 153.86-3.18 154.44-4 155.14-5.75L155.14-5.75 165.39-32.2Q164.49-34.15 163.44-34.9L163.44-34.9Q164.99-37.3 168.24-37.3L168.24-37.3Q170.74-37.3 171.89-35.95 173.04-34.6 174.34-31.1L174.34-31.1 183.29-6.9Q184.59-3.35 186.74-2.3L186.74-2.3ZM202.39-31.2L199.54-31.2 199.54-19.45 202.39-19.45Q205.89-19.45 207.74-20.98 209.59-22.5 209.59-25.33 209.59-28.15 207.74-29.68 205.89-31.2 202.39-31.2L202.39-31.2ZM220.64-2.8L220.64-2.8Q218.94 0.55 215.24 0.55L215.24 0.55Q213.29 0.55 211.69-0.45 210.09-1.45 208.24-4.4L208.24-4.4 202.44-13.85 199.49-13.85 199.49-5.15Q199.49-2.45 201.14-1.6L201.14-1.6Q199.24 0.55 196.54 0.55L196.54 0.55Q191.64 0.55 191.64-5.4L191.64-5.4 191.64-31.15Q191.64-33.7 189.94-34.6L189.94-34.6Q191.79-36.8 194.54-36.8L194.54-36.8 202.84-36.8Q208.89-36.8 213.26-33.77 217.64-30.75 217.64-25.3L217.64-25.3Q217.64-21.75 215.69-19.23 213.74-16.7 210.44-15.3L210.44-15.3 216.34-6.55Q218.14-4.1 220.64-2.8ZM238.38-6.4L238.38-6.4 246.43-6.4Q249.98-6.4 252.73-8.4L252.73-8.4Q254.33-7.05 254.33-4.85 254.33-2.65 252.73-1.33 251.13 0 247.93 0L247.93 0 237.08 0Q232.08 0 229.76-2.15 227.43-4.3 227.43-8.95L227.43-8.95 227.43-31.15Q227.43-33.7 225.73-34.6L225.73-34.6Q227.58-36.8 230.28-36.8L230.28-36.8 246.98-36.8Q250.93-36.8 252.63-35.77 254.33-34.75 254.33-32.75 254.33-30.75 252.73-29.4L252.73-29.4Q250.33-30.35 246.43-30.35L246.43-30.35 235.28-30.35 235.28-22.85 242.18-22.85Q246.18-22.85 247.86-22 249.53-21.15 249.53-19.13 249.53-17.1 247.93-15.85L247.93-15.85Q246.13-16.45 241.63-16.45L241.63-16.45 235.28-16.45 235.28-9.95Q235.28-6.4 238.38-6.4Z" opacity="1" transform="matrix(1,0,0,1,0,0)" fill="#001f3f" class="wordmark-text-0" data-fill-palette-color="primary" id="text-0"></path></svg></g></svg></g></svg></g></svg></g><g transform="matrix(1,0,0,1,409.6842229491969,0)"><svg viewBox="0 0 137.83442010232002 137.83442010232002" height="137.83442010232002" width="137.83442010232002"><g><svg></svg></g><g id="icon-0"><svg viewBox="0 0 137.83442010232002 137.83442010232002" height="137.83442010232002" width="137.83442010232002"><g><rect width="125.32722272266507" height="125.32722272266507" x="6.253598689827477" y="6.253598689827477" fill="#001f3f" data-fill-palette-color="accent"></rect><rect width="125.32722272266507" height="125.32722272266507" x="-5.329070518200751e-15" y="-5.329070518200751e-15" fill="#001f3f" opacity="0.5" data-fill-palette-color="accent"></rect></g><g transform="matrix(1,0,0,1,22.923082814761166,17.86742482807852)"><svg viewBox="0 0 91.98825447279769 102.09957044616299" height="102.09957044616299" width="91.98825447279769"><g><svg xmlns="http://www.w3.org/2000/svg" xmlns:xlink="http://www.w3.org/1999/xlink" version="1.1" x="0" y="0" viewBox="-243.7609100341797 354.00177001953125 77.57159423828125 86.09823608398438" style="enable-background:new -255 347 100 100;" xml:space="preserve" height="102.09957044616299" width="91.98825447279769" class="icon-s-0" data-fill-palette-color="background" id="s-0"><path d="M-215.3 391.2L-215.3 391.2c2.1-0.5 4.6-1.3 4.4-3.8 0-0.3-0.1-0.5-0.2-0.7-0.7-1.1-3-1.1-4.1-1.2h-0.1c-1.1 0.1-3.4 0.1-4.1 1.2-0.1 0.2-0.2 0.5-0.2 0.7C-219.8 389.8-217.3 390.6-215.3 391.2z" fill="#ffffff" data-fill-palette-color="background"></path><path d="M-166.4 409c-0.1-0.9-0.9-1.6-1.8-1.8-0.9-0.2-1.9 0.3-2.3 1.2-1.8 3.7-5.3 5.5-7 6.2-4.2-14.2-17.7-19.1-22.5-20.5 1.8-2.3 3-5 3.8-7.7 2-0.1 8.4-1 9.3-8.7 0.9-8.4-2.7-15.8-10-20.4-7-4.3-17.6-3.2-18.4-3.1-1.1-0.1-11.5-1.1-18.3 3.2-7.3 4.6-11 12-10 20.4 0.8 7.5 7.1 8.5 9.3 8.7 1 3.6 2.6 6.5 4.8 8.8-2.3 1.7-3.6 4.4-3.6 7.3V431c0 5 4.1 9.1 9.1 9.1 3.7 0 6.9-2.2 8.3-5.3 1.6 2.8 4.5 4.7 8 4.7 3.3 0 6.2-1.8 7.8-4.4 2.8 2.2 5.5 3.3 8.3 3.3 0.9 0 1.8-0.1 2.8-0.3 5-1.2 9.2-4.5 11.1-8.7 0.5-1.2 0.9-2.5 1.1-3.8C-166.2 421.2-165.7 413.4-166.4 409zM-241.7 377.5c-0.9-7.7 2.4-14.3 9.1-18.5 6.5-4 17-2.9 17.1-2.9h0.2 0.1c0.2 0.1 10.7-1.1 17.2 2.9 6.7 4.2 10 10.7 9.1 18.5-0.6 5.6-4.9 6.7-6.8 6.9 1.5-7.5 0.1-14.9 0-15.3-0.1-0.5-0.6-0.9-1.2-0.8-0.5 0.1-0.9 0.6-0.8 1.2 0 0.2 2.9 15.2-4 23.6-3.1 3.7-7.6 5.6-13.7 5.6-6 0-10.6-2-13.7-5.8-6.8-8.4-4-23.2-3.9-23.4l-1-0.2-0.1-1c-0.7 0.1-0.9 0.1-1.3 4-0.2 1.8-0.3 4.6-0.1 7.6 0.1 1.6 0.3 3 0.6 4.4C-236.9 384.1-241 383-241.7 377.5zM-179.6 428.4c-1.6 3.6-5.3 6.5-9.7 7.5-3.4 0.8-6.4-0.1-9.8-2.9 0.3-0.9 0.5-1.9 0.5-2.9v-17.7c0-0.6-0.4-1-1-1-0.6 0-1 0.4-1 1v17.8c0 3.9-3.2 7.1-7.1 7.1-3.9 0-7.1-3.2-7.1-7.1v-10.8c0.7-0.7 1.5-1.4 2.2-2.1 0.9-0.8 1.9-1.6 2.7-2.5 1.5-1.5 3.4-2.8 3.5-5.1 0.1-2.4-1.8-4.6-4.2-4.9-1.9-0.2-4.1 1.2-5.2 2.7-1.1-1.5-3.2-3-5.2-2.8-2.4 0.3-4.3 2.4-4.2 4.9 0.1 2.3 1.9 3.6 3.5 5.1 1.6 1.6 3.3 3 4.9 4.5v11.5c0 3.9-3.2 7.1-7.1 7.1s-7.1-3.2-7.1-7.1v-28.2c0-2.4 1.2-4.6 3.2-5.9 3.3 2.6 7.6 4 12.8 4 5.7 0 10.3-1.6 13.7-4.8 3 0.7 19.3 5.2 22.6 21.6C-178.3 420.3-177.9 424.6-179.6 428.4zM-176.4 423.1c0.1-1.9-0.1-4-0.5-6.1 0-0.1-0.1-0.3-0.1-0.4 1.8-0.7 6-2.8 8.3-7.3 0 0 0.1-0.1 0.2-0.1s0.1 0.1 0.1 0.1C-167.7 413.7-168.6 419.6-176.4 423.1z" fill="#ffffff" data-fill-palette-color="background"></path><path d="M-206.5 380.2c1.5 0 2.7-1.5 2.7-3.3 0-0.1 0-0.2 0-0.3-0.1 0-0.2 0.1-0.4 0.1-0.7 0-1.3-0.6-1.3-1.3 0-0.5 0.3-0.9 0.7-1.1-0.5-0.4-1-0.7-1.6-0.7-1.5 0-2.7 1.5-2.7 3.3C-209.2 378.7-208 380.2-206.5 380.2z" fill="#ffffff" data-fill-palette-color="background"></path><path d="M-224 380.2c1.5 0 2.7-1.5 2.7-3.3 0-0.1 0-0.2 0-0.3-0.1 0-0.2 0.1-0.4 0.1-0.7 0-1.3-0.6-1.3-1.3 0-0.5 0.3-0.9 0.7-1.1-0.5-0.4-1-0.7-1.6-0.7-1.5 0-2.7 1.5-2.7 3.3C-226.7 378.7-225.5 380.2-224 380.2z" fill="#ffffff" data-fill-palette-color="background"></path><circle cx="-207.2" cy="387.7" r="0.70" fill="#ffffff" data-fill-palette-color="background"></circle><circle cx="-205.6" cy="390.2" r="0.70" fill="#ffffff" data-fill-palette-color="background"></circle><circle cx="-203.6" cy="387" r="0.70" fill="#ffffff" data-fill-palette-color="background"></circle><circle cx="-223.7" cy="387.7" r="0.70" fill="#ffffff" data-fill-palette-color="background"></circle><circle cx="-225.4" cy="390.2" r="0.70" fill="#ffffff" data-fill-palette-color="background"></circle><circle cx="-227.4" cy="387" r="0.70" fill="#ffffff" data-fill-palette-color="background"></circle></svg></g></svg></g></svg></g></svg></g></svg></g><defs></defs></svg><rect width="395.52" height="99.56970512461636" fill="none" stroke="none" visibility="hidden"></rect></g></svg></g></svg>